<svg width="159" height="149" viewBox="0 0 159 149" fill="none" xmlns="http://www.w3.org/2000/svg">
<g filter="url(#filter0_diii_1_157)">
<path fill-rule="evenodd" clip-rule="evenodd" d="M21 7.72932C21 7.72932 21.686 11.9463 22.5249 16.1148C28.0752 43.7044 28.4294 68.0212 23.6281 91.9002C22.6056 96.9891 21.7682 101.291 21.7682 101.461C21.7682 101.63 24.3955 99.8801 27.6066 97.571C34.2762 92.7743 44.0103 87.6205 50.1921 85.6117C55.999 83.7254 67.4822 83.7351 73.2384 85.6311C79.4801 87.687 82.6528 89.3618 92.6096 95.8543C99.4521 100.316 101.448 101.325 100.932 100.06C98.2767 93.5467 92.2286 81.0017 87.1638 71.5046C70.8208 40.8574 53.2511 22.1598 30.3345 11.0282C22.77 7.35356 21 7.72932 21 7.72932Z" fill="#DD2B1C"/>
<path fill-rule="evenodd" clip-rule="evenodd" d="M129.318 6.80748C122.39 9.79861 114.313 14.3914 108.591 18.5942C100.228 24.7364 87.2306 38.5969 80.6248 48.4197L78.5644 51.4825L82.3579 57.7576C84.4443 61.2097 88.5366 68.5456 91.4512 74.061L96.7511 84.0885L101.393 85.0096C109.858 86.6889 119.437 91.4834 130.673 99.6657C133.903 102.018 136.627 103.864 136.726 103.768C136.824 103.673 136.047 101.081 134.998 98.008C125.833 71.161 125.656 49.4611 134.323 15.4163C135.795 9.63128 137 4.67319 137 4.39754C137 3.587 136.185 3.84249 129.318 6.80748ZM59.7647 86.6336C58.4964 87.5196 51.2944 104 52.1748 104C52.4083 104 53.6997 103.201 55.0448 102.223C56.39 101.246 61.4172 97.9042 66.217 94.7972L74.9431 89.1474L72.3626 88.1001C69.2391 86.8316 60.874 85.8582 59.7647 86.6336Z" fill="#01232E"/>
</g>
<path d="M2.788 125.05V148H6.8V138.412H18.53V148H22.576V125.05H18.53V134.4H6.8V125.05H2.788ZM28.088 125.05V143.376C28.088 146.402 29.788 148.408 33.358 148.408C36.52 148.408 37.982 146.776 38.934 144.158L45.632 129.504C45.904 128.926 46.346 128.518 47.128 128.518C47.944 128.518 48.454 129.028 48.454 129.844V148H52.5V129.64C52.5 126.648 50.766 124.642 47.196 124.642C44 124.642 42.572 126.274 41.62 128.892L34.922 143.546C34.65 144.09 34.208 144.498 33.46 144.498C32.61 144.498 32.1 143.988 32.1 143.206V125.05H28.088ZM57.9708 125.05V143.376C57.9708 146.402 59.6708 148.408 63.2408 148.408C66.4028 148.408 67.8648 146.776 68.8168 144.158L75.5148 129.504C75.7868 128.926 76.2288 128.518 77.0108 128.518C77.8268 128.518 78.3368 129.028 78.3368 129.844V148H82.3828V129.64C82.3828 126.648 80.6488 124.642 77.0788 124.642C73.8828 124.642 72.4548 126.274 71.5028 128.892L64.8048 143.546C64.5328 144.09 64.0908 144.498 63.3428 144.498C62.4928 144.498 61.9828 143.988 61.9828 143.206V125.05H57.9708ZM106.472 125.05C99.8081 125.05 96.1021 128.824 96.1021 136.542C96.1021 144.226 99.7741 148 106.472 148H115.346V143.988H106.472C102.018 143.988 100.114 141.778 100.114 136.542C100.114 131.272 102.052 129.062 106.472 129.062H115.346V125.05H106.472ZM118.326 125.05V129.062H125.024V148H129.07V129.062H135.768V125.05H118.326ZM138.414 125.05V129.062H145.112V148H149.158V129.062H155.856V125.05H138.414Z" fill="#01232E"/>
<path d="M2.788 125.05V124.55H2.288V125.05H2.788ZM2.788 148H2.288V148.5H2.788V148ZM6.8 148V148.5H7.3V148H6.8ZM6.8 138.412V137.912H6.3V138.412H6.8ZM18.53 138.412H19.03V137.912H18.53V138.412ZM18.53 148H18.03V148.5H18.53V148ZM22.576 148V148.5H23.076V148H22.576ZM22.576 125.05H23.076V124.55H22.576V125.05ZM18.53 125.05V124.55H18.03V125.05H18.53ZM18.53 134.4V134.9H19.03V134.4H18.53ZM6.8 134.4H6.3V134.9H6.8V134.4ZM6.8 125.05H7.3V124.55H6.8V125.05ZM2.288 125.05V148H3.288V125.05H2.288ZM2.788 148.5H6.8V147.5H2.788V148.5ZM7.3 148V138.412H6.3V148H7.3ZM6.8 138.912H18.53V137.912H6.8V138.912ZM18.03 138.412V148H19.03V138.412H18.03ZM18.53 148.5H22.576V147.5H18.53V148.5ZM23.076 148V125.05H22.076V148H23.076ZM22.576 124.55H18.53V125.55H22.576V124.55ZM18.03 125.05V134.4H19.03V125.05H18.03ZM18.53 133.9H6.8V134.9H18.53V133.9ZM7.3 134.4V125.05H6.3V134.4H7.3ZM6.8 124.55H2.788V125.55H6.8V124.55ZM28.088 125.05V124.55H27.588V125.05H28.088ZM38.934 144.158L38.4792 143.95L38.4709 143.968L38.4641 143.987L38.934 144.158ZM45.632 129.504L45.1795 129.291L45.1772 129.296L45.632 129.504ZM48.454 148H47.954V148.5H48.454V148ZM52.5 148V148.5H53V148H52.5ZM41.62 128.892L42.0747 129.1L42.083 129.082L42.0899 129.063L41.62 128.892ZM34.922 143.546L35.3692 143.77L35.3731 143.762L35.3767 143.754L34.922 143.546ZM32.1 125.05H32.6V124.55H32.1V125.05ZM27.588 125.05V143.376H28.588V125.05H27.588ZM27.588 143.376C27.588 144.98 28.0399 146.38 29.029 147.379C30.0195 148.379 31.4805 148.908 33.358 148.908V147.908C31.6655 147.908 30.4915 147.434 29.7395 146.675C28.9861 145.914 28.588 144.798 28.588 143.376H27.588ZM33.358 148.908C35.0311 148.908 36.3081 148.473 37.2954 147.648C38.2712 146.833 38.9136 145.677 39.4039 144.329L38.4641 143.987C38.0023 145.257 37.4378 146.226 36.6541 146.881C35.8818 147.527 34.8469 147.908 33.358 147.908V148.908ZM39.3887 144.366L46.0867 129.712L45.1772 129.296L38.4792 143.95L39.3887 144.366ZM46.0844 129.717C46.1962 129.479 46.3272 129.311 46.4807 129.2C46.6285 129.094 46.8296 129.018 47.128 129.018V128.018C46.6443 128.018 46.2334 128.146 45.8968 128.388C45.5658 128.626 45.3398 128.951 45.1796 129.291L46.0844 129.717ZM47.128 129.018C47.4305 129.018 47.6253 129.11 47.7434 129.229C47.8616 129.347 47.954 129.541 47.954 129.844H48.954C48.954 129.331 48.7914 128.862 48.4505 128.521C48.1097 128.181 47.6414 128.018 47.128 128.018V129.018ZM47.954 129.844V148H48.954V129.844H47.954ZM48.454 148.5H52.5V147.5H48.454V148.5ZM53 148V129.64H52V148H53ZM53 129.64C53 128.049 52.5373 126.658 51.5394 125.665C50.5411 124.671 49.0734 124.142 47.196 124.142V125.142C48.8885 125.142 50.0728 125.616 50.834 126.373C51.5957 127.131 52 128.239 52 129.64H53ZM47.196 124.142C45.507 124.142 44.229 124.576 43.2449 125.402C42.2728 126.219 41.6395 127.375 41.1501 128.721L42.0899 129.063C42.5525 127.791 43.1091 126.822 43.888 126.168C44.655 125.524 45.689 125.142 47.196 125.142V124.142ZM41.1652 128.684L34.4672 143.338L35.3767 143.754L42.0747 129.1L41.1652 128.684ZM34.4748 143.322C34.3639 143.544 34.2325 143.709 34.0789 143.819C33.9311 143.925 33.7366 143.998 33.46 143.998V144.998C33.9313 144.998 34.3319 144.867 34.6601 144.633C34.9825 144.403 35.2081 144.092 35.3692 143.77L34.4748 143.322ZM33.46 143.998C33.135 143.998 32.9295 143.902 32.8082 143.785C32.6885 143.67 32.6 143.486 32.6 143.206H31.6C31.6 143.708 31.7664 144.17 32.1143 144.505C32.4604 144.839 32.935 144.998 33.46 144.998V143.998ZM32.6 143.206V125.05H31.6V143.206H32.6ZM32.1 124.55H28.088V125.55H32.1V124.55ZM57.9708 125.05V124.55H57.4708V125.05H57.9708ZM68.8168 144.158L68.362 143.95L68.3537 143.968L68.3469 143.987L68.8168 144.158ZM75.5148 129.504L75.0624 129.291L75.0601 129.296L75.5148 129.504ZM78.3368 148H77.8368V148.5H78.3368V148ZM82.3828 148V148.5H82.8828V148H82.3828ZM71.5028 128.892L71.9576 129.1L71.9659 129.082L71.9727 129.063L71.5028 128.892ZM64.8048 143.546L65.252 143.77L65.2559 143.762L65.2595 143.754L64.8048 143.546ZM61.9828 125.05H62.4828V124.55H61.9828V125.05ZM57.4708 125.05V143.376H58.4708V125.05H57.4708ZM57.4708 143.376C57.4708 144.98 57.9227 146.38 58.9118 147.379C59.9023 148.379 61.3633 148.908 63.2408 148.908V147.908C61.5483 147.908 60.3743 147.434 59.6223 146.675C58.8689 145.914 58.4708 144.798 58.4708 143.376H57.4708ZM63.2408 148.908C64.9139 148.908 66.1909 148.473 67.1782 147.648C68.154 146.833 68.7965 145.677 69.2867 144.329L68.3469 143.987C67.8851 145.257 67.3206 146.226 66.5369 146.881C65.7646 147.527 64.7297 147.908 63.2408 147.908V148.908ZM69.2715 144.366L75.9695 129.712L75.0601 129.296L68.362 143.95L69.2715 144.366ZM75.9672 129.717C76.079 129.479 76.21 129.311 76.3635 129.2C76.5114 129.094 76.7124 129.018 77.0108 129.018V128.018C76.5272 128.018 76.1162 128.146 75.7796 128.388C75.4486 128.626 75.2226 128.951 75.0624 129.291L75.9672 129.717ZM77.0108 129.018C77.3134 129.018 77.5081 129.11 77.6262 129.229C77.7444 129.347 77.8368 129.541 77.8368 129.844H78.8368C78.8368 129.331 78.6742 128.862 78.3334 128.521C77.9925 128.181 77.5242 128.018 77.0108 128.018V129.018ZM77.8368 129.844V148H78.8368V129.844H77.8368ZM78.3368 148.5H82.3828V147.5H78.3368V148.5ZM82.8828 148V129.64H81.8828V148H82.8828ZM82.8828 129.64C82.8828 128.049 82.4201 126.658 81.4222 125.665C80.424 124.671 78.9563 124.142 77.0788 124.142V125.142C78.7713 125.142 79.9556 125.616 80.7169 126.373C81.4785 127.131 81.8828 128.239 81.8828 129.64H82.8828ZM77.0788 124.142C75.3898 124.142 74.1118 124.576 73.1277 125.402C72.1557 126.219 71.5223 127.375 71.0329 128.721L71.9727 129.063C72.4353 127.791 72.9919 126.822 73.7709 126.168C74.5378 125.524 75.5718 125.142 77.0788 125.142V124.142ZM71.048 128.684L64.3501 143.338L65.2595 143.754L71.9576 129.1L71.048 128.684ZM64.3576 143.322C64.2467 143.544 64.1153 143.709 63.9617 143.819C63.8139 143.925 63.6194 143.998 63.3428 143.998V144.998C63.8142 144.998 64.2147 144.867 64.5429 144.633C64.8653 144.403 65.0909 144.092 65.252 143.77L64.3576 143.322ZM63.3428 143.998C63.0178 143.998 62.8124 143.902 62.691 143.785C62.5714 143.67 62.4828 143.486 62.4828 143.206H61.4828C61.4828 143.708 61.6492 144.17 61.9971 144.505C62.3432 144.839 62.8178 144.998 63.3428 144.998V143.998ZM62.4828 143.206V125.05H61.4828V143.206H62.4828ZM61.9828 124.55H57.9708V125.55H61.9828V124.55ZM115.346 148V148.5H115.846V148H115.346ZM115.346 143.988H115.846V143.488H115.346V143.988ZM115.346 129.062V129.562H115.846V129.062H115.346ZM115.346 125.05H115.846V124.55H115.346V125.05ZM106.472 124.55C103.046 124.55 100.302 125.522 98.4205 127.563C96.5456 129.596 95.6021 132.611 95.6021 136.542H96.6021C96.6021 132.755 97.5115 130.024 99.1557 128.241C100.793 126.465 103.234 125.55 106.472 125.55V124.55ZM95.6021 136.542C95.6021 140.456 96.5368 143.462 98.4077 145.491C100.285 147.528 103.03 148.5 106.472 148.5V147.5C103.216 147.5 100.776 146.585 99.1429 144.814C97.5033 143.035 96.6021 140.312 96.6021 136.542H95.6021ZM106.472 148.5H115.346V147.5H106.472V148.5ZM115.846 148V143.988H114.846V148H115.846ZM115.346 143.488H106.472V144.488H115.346V143.488ZM106.472 143.488C104.322 143.488 102.903 142.956 102.003 141.903C101.086 140.832 100.614 139.118 100.614 136.542H99.6141C99.6141 139.202 100.094 141.211 101.243 142.554C102.408 143.915 104.169 144.488 106.472 144.488V143.488ZM100.614 136.542C100.614 133.95 101.094 132.227 102.015 131.151C102.92 130.094 104.34 129.562 106.472 129.562V128.562C104.184 128.562 102.425 129.135 101.256 130.501C100.103 131.847 99.6141 133.864 99.6141 136.542H100.614ZM106.472 129.562H115.346V128.562H106.472V129.562ZM115.846 129.062V125.05H114.846V129.062H115.846ZM115.346 124.55H106.472V125.55H115.346V124.55ZM118.326 125.05V124.55H117.826V125.05H118.326ZM118.326 129.062H117.826V129.562H118.326V129.062ZM125.024 129.062H125.524V128.562H125.024V129.062ZM125.024 148H124.524V148.5H125.024V148ZM129.07 148V148.5H129.57V148H129.07ZM129.07 129.062V128.562H128.57V129.062H129.07ZM135.768 129.062V129.562H136.268V129.062H135.768ZM135.768 125.05H136.268V124.55H135.768V125.05ZM117.826 125.05V129.062H118.826V125.05H117.826ZM118.326 129.562H125.024V128.562H118.326V129.562ZM124.524 129.062V148H125.524V129.062H124.524ZM125.024 148.5H129.07V147.5H125.024V148.5ZM129.57 148V129.062H128.57V148H129.57ZM129.07 129.562H135.768V128.562H129.07V129.562ZM136.268 129.062V125.05H135.268V129.062H136.268ZM135.768 124.55H118.326V125.55H135.768V124.55ZM138.414 125.05V124.55H137.914V125.05H138.414ZM138.414 129.062H137.914V129.562H138.414V129.062ZM145.112 129.062H145.612V128.562H145.112V129.062ZM145.112 148H144.612V148.5H145.112V148ZM149.158 148V148.5H149.658V148H149.158ZM149.158 129.062V128.562H148.658V129.062H149.158ZM155.856 129.062V129.562H156.356V129.062H155.856ZM155.856 125.05H156.356V124.55H155.856V125.05ZM137.914 125.05V129.062H138.914V125.05H137.914ZM138.414 129.562H145.112V128.562H138.414V129.562ZM144.612 129.062V148H145.612V129.062H144.612ZM145.112 148.5H149.158V147.5H145.112V148.5ZM149.658 148V129.062H148.658V148H149.658ZM149.158 129.562H155.856V128.562H149.158V129.562ZM156.356 129.062V125.05H155.356V129.062H156.356ZM155.856 124.55H138.414V125.55H155.856V124.55Z" fill="#01232E"/>
<defs>
<filter id="filter0_diii_1_157" x="20" y="-4" width="132" height="120" filterUnits="userSpaceOnUse" color-interpolation-filters="sRGB">
<feFlood flood-opacity="0" result="BackgroundImageFix"/>
<feColorMatrix in="SourceAlpha" type="matrix" values="0 0 0 0 0 0 0 0 0 0 0 0 0 0 0 0 0 0 127 0" result="hardAlpha"/>
<feOffset dx="7" dy="4"/>
<feGaussianBlur stdDeviation="4"/>
<feComposite in2="hardAlpha" operator="out"/>
<feColorMatrix type="matrix" values="0 0 0 0 0 0 0 0 0 0 0 0 0 0 0 0 0 0 0.25 0"/>
<feBlend mode="normal" in2="BackgroundImageFix" result="effect1_dropShadow_1_157"/>
<feBlend mode="normal" in="SourceGraphic" in2="effect1_dropShadow_1_157" result="shape"/>
<feColorMatrix in="SourceAlpha" type="matrix" values="0 0 0 0 0 0 0 0 0 0 0 0 0 0 0 0 0 0 127 0" result="hardAlpha"/>
<feOffset dx="-1" dy="12"/>
<feGaussianBlur stdDeviation="7.5"/>
<feComposite in2="hardAlpha" operator="arithmetic" k2="-1" k3="1"/>
<feColorMatrix type="matrix" values="0 0 0 0 1 0 0 0 0 1 0 0 0 0 1 0 0 0 0.26 0"/>
<feBlend mode="normal" in2="shape" result="effect2_innerShadow_1_157"/>
<feColorMatrix in="SourceAlpha" type="matrix" values="0 0 0 0 0 0 0 0 0 0 0 0 0 0 0 0 0 0 127 0" result="hardAlpha"/>
<feOffset dx="1" dy="-9"/>
<feGaussianBlur stdDeviation="4"/>
<feComposite in2="hardAlpha" operator="arithmetic" k2="-1" k3="1"/>
<feColorMatrix type="matrix" values="0 0 0 0 0 0 0 0 0 0 0 0 0 0 0 0 0 0 0.19 0"/>
<feBlend mode="normal" in2="effect2_innerShadow_1_157" result="effect3_innerShadow_1_157"/>
<feColorMatrix in="SourceAlpha" type="matrix" values="0 0 0 0 0 0 0 0 0 0 0 0 0 0 0 0 0 0 127 0" result="hardAlpha"/>
<feOffset dx="1"/>
<feComposite in2="hardAlpha" operator="arithmetic" k2="-1" k3="1"/>
<feColorMatrix type="matrix" values="0 0 0 0 1 0 0 0 0 1 0 0 0 0 1 0 0 0 0.12 0"/>
<feBlend mode="normal" in2="effect3_innerShadow_1_157" result="effect4_innerShadow_1_157"/>
</filter>
</defs>
</svg>
